<svg width="207" height="70" viewBox="0 0 207 70" xmlns="http://www.w3.org/2000/svg"><title>devices</title><path d="M200 0h-63c-3.85 0-7 3.15-7 7v42c0 3.85 3.15 7 7 7h24.5v7h-7v7h28v-7h-7v-7H200c3.85 0 7-3.15 7-7V7c0-3.85-3.15-7-7-7zm0 49h-63V7h63v42zm-92.47 12.647v-2.176c2.394 0 4.33-1.96 4.33-4.353l.022-21.765A4.366 4.366 0 0 0 107.53 29H72.706a4.366 4.366 0 0 0-4.353 4.353v21.765a4.366 4.366 0 0 0 4.353 4.353v2.176H64V66h52.235v-4.353h-8.706zM72.705 33.353h34.823v21.765H72.706V33.353zM45.215 32h-12.52A4.689 4.689 0 0 0 28 36.695v25.04a4.689 4.689 0 0 0 4.695 4.695h12.52a4.689 4.689 0 0 0 4.695-4.695v-25.04A4.689 4.689 0 0 0 45.215 32zm-3.13 31.3h-6.26v-1.565h6.26V63.3zm5.086-4.695H30.74v-21.91h16.43v21.91zM11.99 44.01l-10-.01C.89 44 0 44.9 0 46v18c0 1.1.89 2 1.99 2h10c1.1 0 2-.9 2-2V46c0-1.1-.9-1.99-2-1.99zm0 17.99h-10V48h10v14z" fill="#ABAEB4" fill-rule="evenodd"/></svg>