<svg width="195" height="55" viewBox="0 0 195 55" xmlns="http://www.w3.org/2000/svg"><title>devices</title><path d="M189.455 0h-49.91C136.495 0 134 2.475 134 5.5v33c0 3.025 2.495 5.5 5.545 5.5h19.41v5.5h-5.546V55h22.182v-5.5h-5.546V44h19.41c3.05 0 5.545-2.475 5.545-5.5v-33c0-3.025-2.495-5.5-5.545-5.5zM190 38h-50V5h50v33zm-81.003 12.647v-2.176c2.383 0 4.311-1.96 4.311-4.353l.022-21.765c0-2.394-1.95-4.353-4.333-4.353H74.33c-2.383 0-4.333 1.959-4.333 4.353v21.765c0 2.394 1.95 4.353 4.333 4.353v2.176h-8.667V55h52v-4.353h-8.666zM74.663 22h35v22h-35V22zm-29.408 3H34.398a4.076 4.076 0 0 0-4.071 4.09v21.82A4.076 4.076 0 0 0 34.398 55h10.857a4.076 4.076 0 0 0 4.072-4.09V29.09A4.076 4.076 0 0 0 45.255 25zm-2.928 27h-5v-1h5v1zm4-4h-14V29h14v19zM11.99 33.01l-10-.01C.89 33 0 33.9 0 35v18c0 1.1.89 2 1.99 2h10c1.1 0 2-.9 2-2V35c0-1.1-.9-1.99-2-1.99zm0 17.99h-10V37h10v14z" fill="#ABAEB4" fill-rule="evenodd"/></svg>