<?xml version="1.0" encoding="UTF-8"?>
<svg width="1024px" height="293px" viewBox="0 0 1024 293" version="1.1" xmlns="http://www.w3.org/2000/svg" xmlns:xlink="http://www.w3.org/1999/xlink">
    <!-- Generator: Sketch 48.2 (47327) - http://www.bohemiancoding.com/sketch -->
    <title>headerback</title>
    <desc>Created with Sketch.</desc>
    <defs></defs>
    <g id="Desktop" stroke="none" stroke-width="1" fill="none" fill-rule="evenodd">
        <g id="headerback" transform="translate(-41.000000, -56.000000)">
            <polygon id="Path" fill="#FAD820" transform="translate(231.428269, 208.047537) rotate(77.000000) translate(-231.428269, -208.047537) " points="185.541682 258.44526 231.478957 157.649814 277.314855 258.44526"></polygon>
            <polygon id="Path-Copy" fill="#FF9F00" transform="translate(979.656002, 114.445609) rotate(-234.000000) translate(-979.656002, -114.445609) " points="903.133631 191.918988 979.740531 36.9722292 1056.17837 191.918988"></polygon>
            <polygon id="Path-Copy-2" fill="#F35A4B" transform="translate(67.716902, 301.126622) rotate(-98.000000) translate(-67.716902, -301.126622) " points="11.9104559 357.626622 67.7785476 244.626622 123.523348 357.626622"></polygon>
            <polygon id="Path-Copy-3" fill="#D95DB4" transform="translate(291.298513, 38.972479) rotate(-79.000000) translate(-291.298513, -38.972479) " points="258.125012 72.5582548 291.335158 5.38670243 324.472014 72.5582548"></polygon>
            <polygon id="Path-Copy-6" fill="#D95DB4" transform="translate(966.746410, 224.997839) rotate(-79.000000) translate(-966.746410, -224.997839) " points="945.468168 246.540525 966.769915 203.455154 988.024653 246.540525"></polygon>
            <polygon id="Path-Copy-4" fill="#637DC8" transform="translate(37.150815, 114.818928) rotate(-81.000000) translate(-37.150815, -114.818928) " points="5.02448267 147.344521 37.1863028 82.2933343 69.2771474 147.344521"></polygon>
            <polygon id="Path-Copy-5" fill="#637DC8" transform="translate(1034.489203, 300.421109) rotate(-129.000000) translate(-1034.489203, -300.421109) " points="997.423819 337.947136 1034.53015 262.895081 1071.55459 337.947136"></polygon>
        </g>
    </g>
</svg>