<svg id="Layer_1" data-name="Layer 1" xmlns="http://www.w3.org/2000/svg" viewBox="0 0 779.7 195.44"><defs><style>.cls-1{fill:#fff;}.cls-2{font-size:127.84px;font-family:VarelaRound-Regular, Varela Round;}.cls-2,.cls-7{fill:#225861;}.cls-3{fill:#acaeb4;}.cls-4{fill:#f79d31;}.cls-5{fill:#f9d739;}.cls-6{fill:#ef5d51;}</style></defs><title>prisma-logo</title><rect class="cls-1" width="779.7" height="195.44"/><text class="cls-2" transform="translate(265.5 140.09)">PRISMA</text><path class="cls-3" d="M96.54,94H19.75a5.5,5.5,0,0,1,0-11H96.54a5.5,5.5,0,0,1,0,11Z"/><path class="cls-3" d="M96.54,112.45H19.75a5.5,5.5,0,0,1,0-11H96.54a5.5,5.5,0,0,1,0,11Z"/><path class="cls-4" d="M219.25,104.45H142.46a5.5,5.5,0,0,1,0-11h76.79a5.5,5.5,0,0,1,0,11Z"/><path class="cls-5" d="M142.46,88.87a5.5,5.5,0,0,1-1.55-10.78L217.7,55.57a5.5,5.5,0,0,1,3.09,10.56L144,88.65A5.58,5.58,0,0,1,142.46,88.87Z"/><path class="cls-6" d="M219.25,140.09a5.68,5.68,0,0,1-1.29-.15l-76.79-18.52a5.5,5.5,0,0,1,2.58-10.7l76.79,18.53a5.5,5.5,0,0,1-1.29,10.84Z"/><path class="cls-7" d="M89.74,77.73A5.6,5.6,0,0,1,87,77a5.51,5.51,0,0,1-2-7.53l21.7-37.16a17,17,0,0,1,29.42,0l16.42,29.22A5.5,5.5,0,0,1,143,66.92L126.56,37.76a6,6,0,0,0-10.35.05L94.5,75A5.52,5.52,0,0,1,89.74,77.73Z"/><path class="cls-7" d="M187.12,171.63H55.69A17,17,0,0,1,41,146.13l14-24.62a5.5,5.5,0,1,1,9.57,5.43l-14,24.66a6,6,0,0,0,5.17,9H187.12a6,6,0,0,0,5.24-8.91l-2.26-3.55a5.5,5.5,0,1,1,9.29-5.89l2.44,3.85a17,17,0,0,1-14.71,25.5Z"/></svg>