<svg xmlns="http://www.w3.org/2000/svg" viewBox="0 0 779.7 195.44"><defs><style>.a{fill:#fff}.b{fill:#555b6e}.c{fill:#acaeb4}.d{fill:#f79f31}.e{fill:#f9d831}.f{fill:#ee5b4c}</style></defs><title>prisma-logo</title><path class="a" d="M0 0h779.7v195.44H0z"/><path class="b" d="M279.56 139.07a5.55 5.55 0 0 1-1.66-4.07V56.74a5.77 5.77 0 0 1 1.66-4.15 5.46 5.46 0 0 1 4.09-1.73h29.15q12.13 0 19.81 4.09t11 10.49a30.36 30.36 0 0 1 0 27.61q-3.33 6.39-11 10.48t-19.81 4.09h-23.27V135a5.45 5.45 0 0 1-1.72 4.09 5.77 5.77 0 0 1-4.16 1.66 5.55 5.55 0 0 1-4.09-1.68zm32.09-42.44q13 0 18.34-5a17.13 17.13 0 0 0 0-24.8q-5.31-5-18.34-5h-22.12v34.8zm53.82 42.44a5.55 5.55 0 0 1-1.66-4.09V56.74a5.77 5.77 0 0 1 1.66-4.15 5.45 5.45 0 0 1 4.09-1.73h29.78q17.39 0 26.08 7.16a23.16 23.16 0 0 1 8.69 18.79 24.39 24.39 0 0 1-4.28 14 23.81 23.81 0 0 1-12.46 9.19A17.6 17.6 0 0 1 430 111.39a50.13 50.13 0 0 1 3.39 17.71v5.9a5.67 5.67 0 0 1-5.75 5.75 5.79 5.79 0 0 1-4.29-1.6 5.61 5.61 0 0 1-1.59-4.15v-3.83a56.84 56.84 0 0 0-1.16-11.83 19 19 0 0 0-5.49-9.72q-4.35-4.27-13.17-4.28h-26.5V135a5.46 5.46 0 0 1-1.73 4.09 5.75 5.75 0 0 1-4.15 1.66 5.53 5.53 0 0 1-4.09-1.68zm33.11-44.74q11 0 17.45-4.35a14 14 0 0 0 6.45-12.27q0-7.67-5.56-11.76t-19-4.09h-22.5v32.47zm57.9 44.74a5.59 5.59 0 0 1-1.66-4.09V56.11a5.82 5.82 0 0 1 1.66-4.11 5.48 5.48 0 0 1 4.09-1.73 5.91 5.91 0 0 1 5.89 5.89V135a5.46 5.46 0 0 1-1.73 4.09 5.77 5.77 0 0 1-4.16 1.66 5.57 5.57 0 0 1-4.09-1.68zm32.52-3.83a5.82 5.82 0 0 1-2.55-2.11 5.43 5.43 0 0 1 .45-6.91 4.88 4.88 0 0 1 3.77-1.59 5.87 5.87 0 0 1 2.42.51 61.28 61.28 0 0 0 25.19 5.24q22.37 0 22.37-14.7a8.21 8.21 0 0 0-2.88-6.4 20.86 20.86 0 0 0-7.09-4q-4.21-1.47-12-3.52a154.5 154.5 0 0 1-16.74-5.17 29.31 29.31 0 0 1-11-7.48q-4.61-5-4.6-13.3a23.93 23.93 0 0 1 3.83-13.23 26.45 26.45 0 0 1 11.32-9.46q7.47-3.51 18-3.51a72.84 72.84 0 0 1 25.44 4.21 5 5 0 0 1 3.58 5.12 5.61 5.61 0 0 1-1.51 3.69 4.64 4.64 0 0 1-3.71 1.66 5.88 5.88 0 0 1-2-.51 62.28 62.28 0 0 0-20.58-3.46q-10.11 0-16.43 3.84T497.9 74.9a9.87 9.87 0 0 0 3 7.48 20.59 20.59 0 0 0 7.54 4.47 116.46 116.46 0 0 0 12.34 3.39 128.17 128.17 0 0 1 16.29 4.86 26.62 26.62 0 0 1 10.61 7.54q4.42 5.11 4.41 13.8a21.43 21.43 0 0 1-4.09 12.85 26.83 26.83 0 0 1-11.5 8.89 43 43 0 0 1-17.13 3.19 75.87 75.87 0 0 1-30.37-6.13zm82.66 3.83A5.59 5.59 0 0 1 570 135V58.66a8.21 8.21 0 0 1 2.43-5.94 7.92 7.92 0 0 1 5.88-2.5h4.22a7.81 7.81 0 0 1 4.67 1.54 9.51 9.51 0 0 1 3.13 3.83l29 72.36 29-72.36a9.35 9.35 0 0 1 3.13-3.83 7.75 7.75 0 0 1 4.66-1.54h4.22a7.92 7.92 0 0 1 5.88 2.5 8.21 8.21 0 0 1 2.43 5.94V135a5.67 5.67 0 0 1-5.75 5.75 5.77 5.77 0 0 1-4.16-1.66 5.45 5.45 0 0 1-1.72-4.09V62.37l-29.53 73a8.54 8.54 0 0 1-3.26 3.9 9 9 0 0 1-9.84 0 8.48 8.48 0 0 1-3.26-3.9l-29.53-73V135a5.46 5.46 0 0 1-1.73 4.09 5.77 5.77 0 0 1-4.16 1.66 5.57 5.57 0 0 1-4.05-1.68zm117.42 0a5.66 5.66 0 0 1-1.6-4.09 6.94 6.94 0 0 1 .64-2.56l32.6-76.95a9.7 9.7 0 0 1 2.88-3.77 7 7 0 0 1 4.53-1.48h1.28A7.09 7.09 0 0 1 734 51.7a9.9 9.9 0 0 1 2.88 3.77l32.6 76.95a7.1 7.1 0 0 1 .63 2.56 5.69 5.69 0 0 1-1.59 4.09 5.51 5.51 0 0 1-4.16 1.66 5.84 5.84 0 0 1-3.26-1 6.17 6.17 0 0 1-2.24-2.62l-8.3-19.94H707l-8.31 19.94a6.1 6.1 0 0 1-2.24 2.62 5.82 5.82 0 0 1-3.26 1 5.48 5.48 0 0 1-4.11-1.66zm22.43-32.47H746l-17.23-41.55z"/><path class="c" d="M96.54 94H19.75a5.5 5.5 0 0 1 0-11h76.79a5.5 5.5 0 0 1 0 11zm0 18.45H19.75a5.5 5.5 0 0 1 0-11h76.79a5.5 5.5 0 0 1 0 11z"/><path class="d" d="M219.25 104.45h-76.79a5.5 5.5 0 0 1 0-11h76.79a5.5 5.5 0 0 1 0 11z"/><path class="e" d="M142.46 88.87a5.5 5.5 0 0 1-1.55-10.78l76.79-22.52a5.5 5.5 0 0 1 3.09 10.56L144 88.65a5.58 5.58 0 0 1-1.54.22z"/><path class="f" d="M219.25 140.09a5.68 5.68 0 0 1-1.29-.15l-76.79-18.52a5.5 5.5 0 0 1 2.58-10.7l76.79 18.53a5.5 5.5 0 0 1-1.29 10.84z"/><path class="b" d="M89.74 77.73A5.6 5.6 0 0 1 87 77a5.51 5.51 0 0 1-2-7.53l21.7-37.16a17 17 0 0 1 29.42 0l16.42 29.22a5.5 5.5 0 0 1-9.54 5.39l-16.44-29.16a6 6 0 0 0-10.35.05L94.5 75a5.52 5.52 0 0 1-4.76 2.73zm97.38 93.9H55.69A17 17 0 0 1 41 146.13l14-24.62a5.5 5.5 0 1 1 9.57 5.43l-14 24.66a6 6 0 0 0 5.17 9h131.38a6 6 0 0 0 5.24-8.91l-2.26-3.55a5.5 5.5 0 1 1 9.29-5.89l2.44 3.85a17 17 0 0 1-14.71 25.5z"/></svg>