<?xml version="1.0" encoding="UTF-8"?>
<svg width="207px" height="70px" viewBox="0 0 207 70" version="1.1" xmlns="http://www.w3.org/2000/svg" xmlns:xlink="http://www.w3.org/1999/xlink">
    <!-- Generator: Sketch 49.1 (51147) - http://www.bohemiancoding.com/sketch -->
    <title>devices</title>
    <desc>Created with Sketch.</desc>
    <defs></defs>
    <g id="Site" stroke="none" stroke-width="1" fill="none" fill-rule="evenodd">
        <g id="Desktop" transform="translate(-409.000000, -613.000000)" fill="#ABAEB4">
            <g id="devices" transform="translate(409.000000, 613.000000)">
                <path d="M200,0 L137,0 C133.15,0 130,3.15 130,7 L130,49 C130,52.85 133.15,56 137,56 L161.5,56 L161.5,63 L154.5,63 L154.5,70 L182.5,70 L182.5,63 L175.5,63 L175.5,56 L200,56 C203.85,56 207,52.85 207,49 L207,7 C207,3.15 203.85,0 200,0 L200,0 Z M200,49 L137,49 L137,7 L200,7 L200,49 L200,49 Z" id="Shape"></path>
                <path d="M107.529412,61.6470588 L107.529412,59.4705882 C109.923529,59.4705882 111.860588,57.5117647 111.860588,55.1176471 L111.882353,33.3529412 C111.882353,30.9588235 109.923529,29 107.529412,29 L72.7058824,29 C70.3117647,29 68.3529412,30.9588235 68.3529412,33.3529412 L68.3529412,55.1176471 C68.3529412,57.5117647 70.3117647,59.4705882 72.7058824,59.4705882 L72.7058824,61.6470588 L64,61.6470588 L64,66 L116.235294,66 L116.235294,61.6470588 L107.529412,61.6470588 L107.529412,61.6470588 Z M72.7058824,33.3529412 L107.529412,33.3529412 L107.529412,55.1176471 L72.7058824,55.1176471 L72.7058824,33.3529412 L72.7058824,33.3529412 Z" id="Shape"></path>
                <path d="M45.2150002,32 L32.695,32 C30.0971,32 28,34.0971 28,36.695 L28,61.7350003 C28,64.3329003 30.0971,66.4300003 32.695,66.4300003 L45.2150002,66.4300003 C47.8129002,66.4300003 49.9100002,64.3329003 49.9100002,61.7350003 L49.9100002,36.695 C49.9100002,34.0971 47.8129002,32 45.2150002,32 L45.2150002,32 Z M42.0850001,63.3000003 L35.8250001,63.3000003 L35.8250001,61.7350003 L42.0850001,61.7350003 L42.0850001,63.3000003 L42.0850001,63.3000003 Z M47.1712502,58.6050002 L30.73875,58.6050002 L30.73875,36.695 L47.1712502,36.695 L47.1712502,58.6050002 L47.1712502,58.6050002 Z" id="Shape"></path>
                <path d="M11.99,44.01 L1.99,44 C0.89,44 0,44.9 0,46 L0,64 C0,65.1 0.89,66 1.99,66 L11.99,66 C13.09,66 13.99,65.1 13.99,64 L13.99,46 C13.99,44.9 13.09,44.01 11.99,44.01 L11.99,44.01 Z M11.99,62 L1.99,62 L1.99,48 L11.99,48 L11.99,62 L11.99,62 Z" id="Shape"></path>
            </g>
        </g>
    </g>
</svg>