<?xml version="1.0" encoding="UTF-8"?>
<svg width="195px" height="55px" viewBox="0 0 195 55" version="1.1" xmlns="http://www.w3.org/2000/svg" xmlns:xlink="http://www.w3.org/1999/xlink">
    <!-- Generator: Sketch 49.1 (51147) - http://www.bohemiancoding.com/sketch -->
    <title>devices</title>
    <desc>Created with Sketch.</desc>
    <defs></defs>
    <g id="Site" stroke="none" stroke-width="1" fill="none" fill-rule="evenodd">
        <g id="Desktop" transform="translate(-441.000000, -601.000000)" fill="#ABAEB4">
            <g id="devices" transform="translate(441.000000, 601.000000)">
                <path d="M189.454545,0 L139.545455,0 C136.495455,0 134,2.475 134,5.5 L134,38.5 C134,41.525 136.495455,44 139.545455,44 L158.954545,44 L158.954545,49.5 L153.409091,49.5 L153.409091,55 L175.590909,55 L175.590909,49.5 L170.045455,49.5 L170.045455,44 L189.454545,44 C192.504545,44 195,41.525 195,38.5 L195,5.5 C195,2.475 192.504545,0 189.454545,0 L189.454545,0 Z M190,38 L140,38 L140,5 L190,5 L190,38 L190,38 Z" id="Shape"></path>
                <path d="M108.996667,50.6470588 L108.996667,48.4705882 C111.38,48.4705882 113.308333,46.5117647 113.308333,44.1176471 L113.33,22.3529412 C113.33,19.9588235 111.38,18 108.996667,18 L74.33,18 C71.9466667,18 69.9966667,19.9588235 69.9966667,22.3529412 L69.9966667,44.1176471 C69.9966667,46.5117647 71.9466667,48.4705882 74.33,48.4705882 L74.33,50.6470588 L65.6633333,50.6470588 L65.6633333,55 L117.663333,55 L117.663333,50.6470588 L108.996667,50.6470588 L108.996667,50.6470588 Z M74.6633333,22 L109.663333,22 L109.663333,44 L74.6633333,44 L74.6633333,22 L74.6633333,22 Z" id="Shape"></path>
                <path d="M45.2552381,25 L34.3980952,25 C32.1452381,25 30.3266667,26.8272727 30.3266667,29.0909091 L30.3266667,50.9090909 C30.3266667,53.1727273 32.1452381,55 34.3980952,55 L45.2552381,55 C47.5080952,55 49.3266667,53.1727273 49.3266667,50.9090909 L49.3266667,29.0909091 C49.3266667,26.8272727 47.5080952,25 45.2552381,25 L45.2552381,25 Z M42.3266667,52 L37.3266667,52 L37.3266667,51 L42.3266667,51 L42.3266667,52 L42.3266667,52 Z M46.3266667,48 L32.3266667,48 L32.3266667,29 L46.3266667,29 L46.3266667,48 L46.3266667,48 Z" id="Shape"></path>
                <path d="M11.99,33.01 L1.99,33 C0.89,33 0,33.9 0,35 L0,53 C0,54.1 0.89,55 1.99,55 L11.99,55 C13.09,55 13.99,54.1 13.99,53 L13.99,35 C13.99,33.9 13.09,33.01 11.99,33.01 L11.99,33.01 Z M11.99,51 L1.99,51 L1.99,37 L11.99,37 L11.99,51 L11.99,51 Z" id="Shape"></path>
            </g>
        </g>
    </g>
</svg>