<?xml version="1.0" encoding="UTF-8"?>
<svg width="1024px" height="197px" viewBox="0 0 1024 197" version="1.1" xmlns="http://www.w3.org/2000/svg" xmlns:xlink="http://www.w3.org/1999/xlink">
    <!-- Generator: Sketch 48.2 (47327) - http://www.bohemiancoding.com/sketch -->
    <title>Desktop</title>
    <desc>Created with Sketch.</desc>
    <defs></defs>
    <g id="Desktop" stroke="none" stroke-width="1" fill="none" fill-rule="evenodd">
        <g id="headerback-copy" transform="translate(-14.000000, -78.000000)">
            <polygon id="Path" fill="#FAD820" transform="translate(136.426922, 167.582232) rotate(77.000000) translate(-136.426922, -167.582232) " points="111.388993 195.081653 136.454579 140.08281 161.46485 195.081653"></polygon>
            <polygon id="Path-Copy" fill="#FF9F00" transform="translate(979.202658, 81.408920) rotate(-234.000000) translate(-979.202658, -81.408920) " points="921.54977 139.778309 979.266344 23.0395305 1036.85555 139.778309"></polygon>
            <polygon id="Path-Copy-2" fill="#F35A4B" transform="translate(50.193636, 239.419858) rotate(-98.000000) translate(-50.193636, -239.419858) " points="21.1209913 268.853813 50.2257509 209.985902 79.2662815 268.853813"></polygon>
            <polygon id="Path-Copy-3" fill="#D95DB4" transform="translate(264.298513, 79.972479) rotate(-79.000000) translate(-264.298513, -79.972479) " points="231.125012 113.558255 264.335158 46.3867024 297.472014 113.558255"></polygon>
            <polygon id="Path-Copy-6" fill="#D95DB4" transform="translate(979.206966, 167.997839) rotate(-79.000000) translate(-979.206966, -167.997839) " points="957.928723 189.540525 979.23047 146.455154 1000.48521 189.540525"></polygon>
            <polygon id="Path-Copy-4" fill="#637DC8" transform="translate(23.898629, 130.062872) rotate(-81.000000) translate(-23.898629, -130.062872) " points="3.32829227 150.888854 23.9213517 109.236891 44.4689659 150.888854"></polygon>
            <polygon id="Path-Copy-5" fill="#637DC8" transform="translate(1031.489203, 232.421109) rotate(-129.000000) translate(-1031.489203, -232.421109) " points="994.423819 269.947136 1031.53015 194.895081 1068.55459 269.947136"></polygon>
        </g>
    </g>
</svg>